<mxfile host="Electron" modified="2024-04-26T22:21:58.949Z" agent="Mozilla/5.0 (Macintosh; Intel Mac OS X 10_15_7) AppleWebKit/537.36 (KHTML, like Gecko) draw.io/24.2.5 Chrome/120.0.6099.109 Electron/28.1.0 Safari/537.36" etag="mMrv-qR2mLrlRa-ugK28" version="24.2.5" type="device">
  <diagram id="R2lEEEUBdFMjLlhIrx00" name="Page-1">
    <mxGraphModel dx="954" dy="727" grid="1" gridSize="10" guides="1" tooltips="1" connect="1" arrows="1" fold="1" page="1" pageScale="1" pageWidth="850" pageHeight="1100" math="0" shadow="0" extFonts="Permanent Marker^https://fonts.googleapis.com/css?family=Permanent+Marker">
      <root>
        <mxCell id="0" />
        <mxCell id="1" parent="0" />
        <mxCell id="tjMhWLp5CBzY1aZbskVi-7" value="UI -&lt;span style=&quot;background-color: initial;&quot;&gt;&amp;nbsp;password&lt;/span&gt;&lt;div&gt;manager&lt;/div&gt;" style="rounded=0;whiteSpace=wrap;html=1;" vertex="1" parent="1">
          <mxGeometry x="150" y="160" width="140" height="80" as="geometry" />
        </mxCell>
        <mxCell id="tjMhWLp5CBzY1aZbskVi-36" value="" style="endArrow=none;html=1;rounded=0;exitX=1;exitY=0.25;exitDx=0;exitDy=0;entryX=-0.025;entryY=0.363;entryDx=0;entryDy=0;entryPerimeter=0;" edge="1" parent="1" source="tjMhWLp5CBzY1aZbskVi-67" target="tjMhWLp5CBzY1aZbskVi-39">
          <mxGeometry relative="1" as="geometry">
            <mxPoint x="350" y="190" as="sourcePoint" />
            <mxPoint x="460" y="120" as="targetPoint" />
          </mxGeometry>
        </mxCell>
        <mxCell id="tjMhWLp5CBzY1aZbskVi-38" value="N" style="resizable=0;html=1;whiteSpace=wrap;align=right;verticalAlign=bottom;" connectable="0" vertex="1" parent="tjMhWLp5CBzY1aZbskVi-36">
          <mxGeometry x="1" relative="1" as="geometry" />
        </mxCell>
        <mxCell id="tjMhWLp5CBzY1aZbskVi-39" value="Functionality" style="rounded=0;whiteSpace=wrap;html=1;" vertex="1" parent="1">
          <mxGeometry x="470" y="20" width="120" height="80" as="geometry" />
        </mxCell>
        <mxCell id="tjMhWLp5CBzY1aZbskVi-43" value="" style="endArrow=none;html=1;rounded=0;exitX=0.5;exitY=0;exitDx=0;exitDy=0;" edge="1" parent="1" source="tjMhWLp5CBzY1aZbskVi-7" target="tjMhWLp5CBzY1aZbskVi-46">
          <mxGeometry relative="1" as="geometry">
            <mxPoint x="160" y="140" as="sourcePoint" />
            <mxPoint x="140" y="70" as="targetPoint" />
          </mxGeometry>
        </mxCell>
        <mxCell id="tjMhWLp5CBzY1aZbskVi-46" value="Password details" style="ellipse;whiteSpace=wrap;html=1;" vertex="1" parent="1">
          <mxGeometry x="160" y="20" width="120" height="80" as="geometry" />
        </mxCell>
        <mxCell id="tjMhWLp5CBzY1aZbskVi-47" value="Password List" style="ellipse;whiteSpace=wrap;html=1;" vertex="1" parent="1">
          <mxGeometry x="50" y="270" width="120" height="80" as="geometry" />
        </mxCell>
        <mxCell id="tjMhWLp5CBzY1aZbskVi-48" value="main screen" style="ellipse;whiteSpace=wrap;html=1;" vertex="1" parent="1">
          <mxGeometry x="20" y="40" width="120" height="80" as="geometry" />
        </mxCell>
        <mxCell id="tjMhWLp5CBzY1aZbskVi-49" value="" style="endArrow=none;html=1;rounded=0;exitX=0.408;exitY=-0.05;exitDx=0;exitDy=0;exitPerimeter=0;" edge="1" parent="1" source="tjMhWLp5CBzY1aZbskVi-47" target="tjMhWLp5CBzY1aZbskVi-7">
          <mxGeometry relative="1" as="geometry">
            <mxPoint x="210" y="310" as="sourcePoint" />
            <mxPoint x="170" y="240" as="targetPoint" />
            <Array as="points" />
          </mxGeometry>
        </mxCell>
        <mxCell id="tjMhWLp5CBzY1aZbskVi-51" value="" style="endArrow=none;html=1;rounded=0;exitX=0;exitY=0.25;exitDx=0;exitDy=0;" edge="1" parent="1" source="tjMhWLp5CBzY1aZbskVi-7" target="tjMhWLp5CBzY1aZbskVi-48">
          <mxGeometry relative="1" as="geometry">
            <mxPoint x="194" y="181" as="sourcePoint" />
            <mxPoint x="170" y="130" as="targetPoint" />
            <Array as="points" />
          </mxGeometry>
        </mxCell>
        <mxCell id="tjMhWLp5CBzY1aZbskVi-52" value="Security" style="rounded=0;whiteSpace=wrap;html=1;" vertex="1" parent="1">
          <mxGeometry x="480" y="347.5" width="120" height="80" as="geometry" />
        </mxCell>
        <mxCell id="tjMhWLp5CBzY1aZbskVi-53" value="Datatbase" style="rounded=0;whiteSpace=wrap;html=1;" vertex="1" parent="1">
          <mxGeometry x="370" y="510" width="120" height="80" as="geometry" />
        </mxCell>
        <mxCell id="tjMhWLp5CBzY1aZbskVi-54" value="User Interaction" style="rounded=0;whiteSpace=wrap;html=1;" vertex="1" parent="1">
          <mxGeometry x="200" y="500" width="120" height="80" as="geometry" />
        </mxCell>
        <mxCell id="tjMhWLp5CBzY1aZbskVi-55" value="Password details" style="ellipse;whiteSpace=wrap;html=1;" vertex="1" parent="1">
          <mxGeometry y="160" width="120" height="80" as="geometry" />
        </mxCell>
        <mxCell id="tjMhWLp5CBzY1aZbskVi-56" value="" style="endArrow=none;html=1;rounded=0;" edge="1" parent="1" source="tjMhWLp5CBzY1aZbskVi-55" target="tjMhWLp5CBzY1aZbskVi-7">
          <mxGeometry relative="1" as="geometry">
            <mxPoint x="230" y="330" as="sourcePoint" />
            <mxPoint x="160" y="260" as="targetPoint" />
            <Array as="points" />
          </mxGeometry>
        </mxCell>
        <mxCell id="tjMhWLp5CBzY1aZbskVi-57" value="" style="endArrow=none;html=1;rounded=0;exitX=1;exitY=0.5;exitDx=0;exitDy=0;entryX=0;entryY=0.25;entryDx=0;entryDy=0;" edge="1" parent="1" source="tjMhWLp5CBzY1aZbskVi-71" target="tjMhWLp5CBzY1aZbskVi-52">
          <mxGeometry relative="1" as="geometry">
            <mxPoint x="300" y="210" as="sourcePoint" />
            <mxPoint x="470" y="130" as="targetPoint" />
          </mxGeometry>
        </mxCell>
        <mxCell id="tjMhWLp5CBzY1aZbskVi-59" value="N" style="resizable=0;html=1;whiteSpace=wrap;align=right;verticalAlign=bottom;" connectable="0" vertex="1" parent="tjMhWLp5CBzY1aZbskVi-57">
          <mxGeometry x="1" relative="1" as="geometry" />
        </mxCell>
        <mxCell id="tjMhWLp5CBzY1aZbskVi-60" value="" style="endArrow=none;html=1;rounded=0;exitX=1;exitY=0.5;exitDx=0;exitDy=0;entryX=0.25;entryY=0;entryDx=0;entryDy=0;" edge="1" parent="1" source="tjMhWLp5CBzY1aZbskVi-75" target="tjMhWLp5CBzY1aZbskVi-53">
          <mxGeometry relative="1" as="geometry">
            <mxPoint x="310" y="220" as="sourcePoint" />
            <mxPoint x="480" y="140" as="targetPoint" />
          </mxGeometry>
        </mxCell>
        <mxCell id="tjMhWLp5CBzY1aZbskVi-62" value="N" style="resizable=0;html=1;whiteSpace=wrap;align=right;verticalAlign=bottom;" connectable="0" vertex="1" parent="tjMhWLp5CBzY1aZbskVi-60">
          <mxGeometry x="1" relative="1" as="geometry" />
        </mxCell>
        <mxCell id="tjMhWLp5CBzY1aZbskVi-63" value="" style="endArrow=none;html=1;rounded=0;exitX=0.5;exitY=1;exitDx=0;exitDy=0;entryX=0.417;entryY=0.025;entryDx=0;entryDy=0;entryPerimeter=0;" edge="1" parent="1" source="tjMhWLp5CBzY1aZbskVi-79" target="tjMhWLp5CBzY1aZbskVi-54">
          <mxGeometry relative="1" as="geometry">
            <mxPoint x="300" y="230" as="sourcePoint" />
            <mxPoint x="353" y="400" as="targetPoint" />
          </mxGeometry>
        </mxCell>
        <mxCell id="tjMhWLp5CBzY1aZbskVi-65" value="N" style="resizable=0;html=1;whiteSpace=wrap;align=right;verticalAlign=bottom;" connectable="0" vertex="1" parent="tjMhWLp5CBzY1aZbskVi-63">
          <mxGeometry x="1" relative="1" as="geometry" />
        </mxCell>
        <mxCell id="tjMhWLp5CBzY1aZbskVi-66" value="Password Table" style="ellipse;whiteSpace=wrap;html=1;" vertex="1" parent="1">
          <mxGeometry x="545.06" y="530" width="80" height="60" as="geometry" />
        </mxCell>
        <mxCell id="tjMhWLp5CBzY1aZbskVi-68" value="" style="endArrow=none;html=1;rounded=0;exitX=1;exitY=0.25;exitDx=0;exitDy=0;entryX=0;entryY=0.5;entryDx=0;entryDy=0;" edge="1" parent="1" source="tjMhWLp5CBzY1aZbskVi-7" target="tjMhWLp5CBzY1aZbskVi-67">
          <mxGeometry relative="1" as="geometry">
            <mxPoint x="290" y="180" as="sourcePoint" />
            <mxPoint x="537" y="59" as="targetPoint" />
          </mxGeometry>
        </mxCell>
        <mxCell id="tjMhWLp5CBzY1aZbskVi-69" value="M" style="resizable=0;html=1;whiteSpace=wrap;align=left;verticalAlign=bottom;" connectable="0" vertex="1" parent="tjMhWLp5CBzY1aZbskVi-68">
          <mxGeometry x="-1" relative="1" as="geometry" />
        </mxCell>
        <mxCell id="tjMhWLp5CBzY1aZbskVi-67" value="For User" style="rhombus;whiteSpace=wrap;html=1;rotation=-30;" vertex="1" parent="1">
          <mxGeometry x="299" y="92.5" width="102.46" height="67.5" as="geometry" />
        </mxCell>
        <mxCell id="tjMhWLp5CBzY1aZbskVi-72" value="" style="endArrow=none;html=1;rounded=0;exitX=1;exitY=0.5;exitDx=0;exitDy=0;entryX=0.089;entryY=0.593;entryDx=0;entryDy=0;entryPerimeter=0;" edge="1" parent="1" source="tjMhWLp5CBzY1aZbskVi-7" target="tjMhWLp5CBzY1aZbskVi-71">
          <mxGeometry relative="1" as="geometry">
            <mxPoint x="290" y="200" as="sourcePoint" />
            <mxPoint x="560" y="180" as="targetPoint" />
          </mxGeometry>
        </mxCell>
        <mxCell id="tjMhWLp5CBzY1aZbskVi-73" value="M" style="resizable=0;html=1;whiteSpace=wrap;align=left;verticalAlign=bottom;" connectable="0" vertex="1" parent="tjMhWLp5CBzY1aZbskVi-72">
          <mxGeometry x="-1" relative="1" as="geometry" />
        </mxCell>
        <mxCell id="tjMhWLp5CBzY1aZbskVi-71" value="For User" style="rhombus;whiteSpace=wrap;html=1;rotation=0;" vertex="1" parent="1">
          <mxGeometry x="350.83" y="240" width="102.46" height="67.5" as="geometry" />
        </mxCell>
        <mxCell id="tjMhWLp5CBzY1aZbskVi-76" value="" style="endArrow=none;html=1;rounded=0;exitX=1;exitY=0.75;exitDx=0;exitDy=0;" edge="1" parent="1" source="tjMhWLp5CBzY1aZbskVi-7" target="tjMhWLp5CBzY1aZbskVi-75">
          <mxGeometry relative="1" as="geometry">
            <mxPoint x="290" y="220" as="sourcePoint" />
            <mxPoint x="385" y="235" as="targetPoint" />
          </mxGeometry>
        </mxCell>
        <mxCell id="tjMhWLp5CBzY1aZbskVi-77" value="M" style="resizable=0;html=1;whiteSpace=wrap;align=left;verticalAlign=bottom;" connectable="0" vertex="1" parent="tjMhWLp5CBzY1aZbskVi-76">
          <mxGeometry x="-1" relative="1" as="geometry" />
        </mxCell>
        <mxCell id="tjMhWLp5CBzY1aZbskVi-75" value="For Program" style="rhombus;whiteSpace=wrap;html=1;rotation=15;" vertex="1" parent="1">
          <mxGeometry x="299" y="298.98" width="94.23" height="67.5" as="geometry" />
        </mxCell>
        <mxCell id="tjMhWLp5CBzY1aZbskVi-80" value="" style="endArrow=none;html=1;rounded=0;exitX=1;exitY=1;exitDx=0;exitDy=0;entryX=0.323;entryY=0.119;entryDx=0;entryDy=0;entryPerimeter=0;" edge="1" parent="1" source="tjMhWLp5CBzY1aZbskVi-7" target="tjMhWLp5CBzY1aZbskVi-79">
          <mxGeometry relative="1" as="geometry">
            <mxPoint x="290" y="240" as="sourcePoint" />
            <mxPoint x="357" y="319" as="targetPoint" />
          </mxGeometry>
        </mxCell>
        <mxCell id="tjMhWLp5CBzY1aZbskVi-81" value="M" style="resizable=0;html=1;whiteSpace=wrap;align=left;verticalAlign=bottom;" connectable="0" vertex="1" parent="tjMhWLp5CBzY1aZbskVi-80">
          <mxGeometry x="-1" relative="1" as="geometry" />
        </mxCell>
        <mxCell id="tjMhWLp5CBzY1aZbskVi-79" value="For Program" style="rhombus;whiteSpace=wrap;html=1;rotation=0;" vertex="1" parent="1">
          <mxGeometry x="200" y="360" width="99" height="67.5" as="geometry" />
        </mxCell>
        <mxCell id="tjMhWLp5CBzY1aZbskVi-83" value="" style="endArrow=none;html=1;rounded=0;entryX=1;entryY=0.25;entryDx=0;entryDy=0;" edge="1" parent="1" source="tjMhWLp5CBzY1aZbskVi-66" target="tjMhWLp5CBzY1aZbskVi-53">
          <mxGeometry relative="1" as="geometry">
            <mxPoint x="684" y="405.5" as="sourcePoint" />
            <mxPoint x="650" y="315" as="targetPoint" />
          </mxGeometry>
        </mxCell>
        <mxCell id="tjMhWLp5CBzY1aZbskVi-84" value="Setting Table" style="ellipse;whiteSpace=wrap;html=1;" vertex="1" parent="1">
          <mxGeometry x="509.99999999999994" y="630" width="80" height="60" as="geometry" />
        </mxCell>
        <mxCell id="tjMhWLp5CBzY1aZbskVi-85" value="" style="endArrow=none;html=1;rounded=0;exitX=0.038;exitY=0.633;exitDx=0;exitDy=0;entryX=1;entryY=0.5;entryDx=0;entryDy=0;exitPerimeter=0;" edge="1" parent="1" source="tjMhWLp5CBzY1aZbskVi-84" target="tjMhWLp5CBzY1aZbskVi-53">
          <mxGeometry relative="1" as="geometry">
            <mxPoint x="690" y="322" as="sourcePoint" />
            <mxPoint x="660" y="324.5" as="targetPoint" />
            <Array as="points" />
          </mxGeometry>
        </mxCell>
        <mxCell id="tjMhWLp5CBzY1aZbskVi-86" value="Encryption" style="ellipse;whiteSpace=wrap;html=1;" vertex="1" parent="1">
          <mxGeometry x="500" y="442.5" width="80" height="57.5" as="geometry" />
        </mxCell>
        <mxCell id="tjMhWLp5CBzY1aZbskVi-87" value="" style="endArrow=none;html=1;rounded=0;exitX=0.5;exitY=0;exitDx=0;exitDy=0;entryX=0.5;entryY=1;entryDx=0;entryDy=0;" edge="1" parent="1" source="tjMhWLp5CBzY1aZbskVi-86" target="tjMhWLp5CBzY1aZbskVi-52">
          <mxGeometry relative="1" as="geometry">
            <mxPoint x="642" y="351" as="sourcePoint" />
            <mxPoint x="530" y="300" as="targetPoint" />
          </mxGeometry>
        </mxCell>
        <mxCell id="tjMhWLp5CBzY1aZbskVi-88" value="Biometric Authentication" style="ellipse;whiteSpace=wrap;html=1;" vertex="1" parent="1">
          <mxGeometry x="640" y="367.5" width="90" height="60" as="geometry" />
        </mxCell>
        <mxCell id="tjMhWLp5CBzY1aZbskVi-90" value="save passsword" style="ellipse;whiteSpace=wrap;html=1;" vertex="1" parent="1">
          <mxGeometry x="710" width="100" height="60" as="geometry" />
        </mxCell>
        <mxCell id="tjMhWLp5CBzY1aZbskVi-92" value="" style="endArrow=none;html=1;rounded=0;entryX=1;entryY=0;entryDx=0;entryDy=0;exitX=0;exitY=0.5;exitDx=0;exitDy=0;" edge="1" parent="1" source="tjMhWLp5CBzY1aZbskVi-90" target="tjMhWLp5CBzY1aZbskVi-39">
          <mxGeometry relative="1" as="geometry">
            <mxPoint x="681" y="80.5" as="sourcePoint" />
            <mxPoint x="660" y="39.5" as="targetPoint" />
          </mxGeometry>
        </mxCell>
        <mxCell id="tjMhWLp5CBzY1aZbskVi-94" value="Retrieve Password" style="ellipse;whiteSpace=wrap;html=1;" vertex="1" parent="1">
          <mxGeometry x="453.29" y="170" width="100" height="60" as="geometry" />
        </mxCell>
        <mxCell id="tjMhWLp5CBzY1aZbskVi-95" value="update password" style="ellipse;whiteSpace=wrap;html=1;" vertex="1" parent="1">
          <mxGeometry x="390" y="120" width="100" height="60" as="geometry" />
        </mxCell>
        <mxCell id="tjMhWLp5CBzY1aZbskVi-96" value="" style="endArrow=none;html=1;rounded=0;entryX=1;entryY=0.5;entryDx=0;entryDy=0;exitX=-0.056;exitY=0.633;exitDx=0;exitDy=0;exitPerimeter=0;" edge="1" parent="1" source="tjMhWLp5CBzY1aZbskVi-88" target="tjMhWLp5CBzY1aZbskVi-52">
          <mxGeometry relative="1" as="geometry">
            <mxPoint x="640" y="310" as="sourcePoint" />
            <mxPoint x="629" y="283" as="targetPoint" />
          </mxGeometry>
        </mxCell>
        <mxCell id="tjMhWLp5CBzY1aZbskVi-97" value="" style="endArrow=none;html=1;rounded=0;entryX=0.643;entryY=0.017;entryDx=0;entryDy=0;exitX=0.158;exitY=0.975;exitDx=0;exitDy=0;entryPerimeter=0;exitPerimeter=0;" edge="1" parent="1" source="tjMhWLp5CBzY1aZbskVi-39" target="tjMhWLp5CBzY1aZbskVi-95">
          <mxGeometry relative="1" as="geometry">
            <mxPoint x="610" y="120" as="sourcePoint" />
            <mxPoint x="560" y="129.5" as="targetPoint" />
          </mxGeometry>
        </mxCell>
        <mxCell id="tjMhWLp5CBzY1aZbskVi-98" value="" style="endArrow=none;html=1;rounded=0;entryX=0.5;entryY=0;entryDx=0;entryDy=0;exitX=0.417;exitY=0.975;exitDx=0;exitDy=0;exitPerimeter=0;" edge="1" parent="1" source="tjMhWLp5CBzY1aZbskVi-39" target="tjMhWLp5CBzY1aZbskVi-94">
          <mxGeometry relative="1" as="geometry">
            <mxPoint x="569" y="118" as="sourcePoint" />
            <mxPoint x="544" y="131" as="targetPoint" />
          </mxGeometry>
        </mxCell>
        <mxCell id="tjMhWLp5CBzY1aZbskVi-99" value="delete passsword" style="ellipse;whiteSpace=wrap;html=1;" vertex="1" parent="1">
          <mxGeometry x="710" y="60" width="100" height="60" as="geometry" />
        </mxCell>
        <mxCell id="tjMhWLp5CBzY1aZbskVi-102" value="" style="endArrow=none;html=1;rounded=0;entryX=1;entryY=0.25;entryDx=0;entryDy=0;exitX=0.01;exitY=0.301;exitDx=0;exitDy=0;exitPerimeter=0;" edge="1" parent="1" source="tjMhWLp5CBzY1aZbskVi-99" target="tjMhWLp5CBzY1aZbskVi-39">
          <mxGeometry relative="1" as="geometry">
            <mxPoint x="720" y="40" as="sourcePoint" />
            <mxPoint x="670" y="49.5" as="targetPoint" />
          </mxGeometry>
        </mxCell>
        <mxCell id="tjMhWLp5CBzY1aZbskVi-103" value="Quick Copy" style="ellipse;whiteSpace=wrap;html=1;" vertex="1" parent="1">
          <mxGeometry x="710" y="120" width="100" height="60" as="geometry" />
        </mxCell>
        <mxCell id="tjMhWLp5CBzY1aZbskVi-104" value="" style="endArrow=none;html=1;rounded=0;entryX=1.017;entryY=0.588;entryDx=0;entryDy=0;exitX=0.01;exitY=0.301;exitDx=0;exitDy=0;exitPerimeter=0;entryPerimeter=0;" edge="1" parent="1" target="tjMhWLp5CBzY1aZbskVi-39">
          <mxGeometry relative="1" as="geometry">
            <mxPoint x="711" y="148" as="sourcePoint" />
            <mxPoint x="660" y="110" as="targetPoint" />
          </mxGeometry>
        </mxCell>
        <mxCell id="tjMhWLp5CBzY1aZbskVi-105" value="Security alerts" style="ellipse;whiteSpace=wrap;html=1;" vertex="1" parent="1">
          <mxGeometry x="700" y="180" width="85" height="60" as="geometry" />
        </mxCell>
        <mxCell id="tjMhWLp5CBzY1aZbskVi-106" style="edgeStyle=orthogonalEdgeStyle;rounded=0;orthogonalLoop=1;jettySize=auto;html=1;exitX=1;exitY=0.5;exitDx=0;exitDy=0;entryX=1;entryY=1;entryDx=0;entryDy=0;" edge="1" parent="1" source="tjMhWLp5CBzY1aZbskVi-75" target="tjMhWLp5CBzY1aZbskVi-75">
          <mxGeometry relative="1" as="geometry" />
        </mxCell>
        <mxCell id="tjMhWLp5CBzY1aZbskVi-107" value="" style="endArrow=none;html=1;rounded=0;entryX=0.858;entryY=1.013;entryDx=0;entryDy=0;exitX=0.235;exitY=0;exitDx=0;exitDy=0;exitPerimeter=0;entryPerimeter=0;" edge="1" parent="1" source="tjMhWLp5CBzY1aZbskVi-105" target="tjMhWLp5CBzY1aZbskVi-39">
          <mxGeometry relative="1" as="geometry">
            <mxPoint x="721" y="158" as="sourcePoint" />
            <mxPoint x="670" y="120" as="targetPoint" />
          </mxGeometry>
        </mxCell>
        <mxCell id="tjMhWLp5CBzY1aZbskVi-108" value="Groups password" style="ellipse;whiteSpace=wrap;html=1;" vertex="1" parent="1">
          <mxGeometry x="590" y="170" width="100" height="60" as="geometry" />
        </mxCell>
        <mxCell id="tjMhWLp5CBzY1aZbskVi-109" value="" style="endArrow=none;html=1;rounded=0;entryX=0.75;entryY=1;entryDx=0;entryDy=0;exitX=0.32;exitY=0.033;exitDx=0;exitDy=0;exitPerimeter=0;" edge="1" parent="1" source="tjMhWLp5CBzY1aZbskVi-108" target="tjMhWLp5CBzY1aZbskVi-39">
          <mxGeometry relative="1" as="geometry">
            <mxPoint x="730" y="190" as="sourcePoint" />
            <mxPoint x="583" y="111" as="targetPoint" />
          </mxGeometry>
        </mxCell>
        <mxCell id="tjMhWLp5CBzY1aZbskVi-110" value="One Click Login" style="ellipse;whiteSpace=wrap;html=1;" vertex="1" parent="1">
          <mxGeometry x="525.06" y="230" width="100" height="60" as="geometry" />
        </mxCell>
        <mxCell id="tjMhWLp5CBzY1aZbskVi-111" value="" style="endArrow=none;html=1;rounded=0;entryX=0.633;entryY=1;entryDx=0;entryDy=0;exitX=0.389;exitY=0;exitDx=0;exitDy=0;exitPerimeter=0;entryPerimeter=0;" edge="1" parent="1" source="tjMhWLp5CBzY1aZbskVi-110" target="tjMhWLp5CBzY1aZbskVi-39">
          <mxGeometry relative="1" as="geometry">
            <mxPoint x="632" y="182" as="sourcePoint" />
            <mxPoint x="570" y="110" as="targetPoint" />
          </mxGeometry>
        </mxCell>
        <mxCell id="tjMhWLp5CBzY1aZbskVi-112" value="Automatic Lock" style="ellipse;whiteSpace=wrap;html=1;" vertex="1" parent="1">
          <mxGeometry x="320" y="10" width="100" height="60" as="geometry" />
        </mxCell>
        <mxCell id="tjMhWLp5CBzY1aZbskVi-113" value="" style="endArrow=none;html=1;rounded=0;entryX=1;entryY=0.5;entryDx=0;entryDy=0;exitX=0.017;exitY=0.138;exitDx=0;exitDy=0;exitPerimeter=0;" edge="1" parent="1" source="tjMhWLp5CBzY1aZbskVi-39" target="tjMhWLp5CBzY1aZbskVi-112">
          <mxGeometry relative="1" as="geometry">
            <mxPoint x="720" y="40" as="sourcePoint" />
            <mxPoint x="600" y="30" as="targetPoint" />
          </mxGeometry>
        </mxCell>
      </root>
    </mxGraphModel>
  </diagram>
</mxfile>
